<svg width="512" height="512" enable-background="new 0 0 512 512" version="1.1" viewBox="0 0 512 512" xmlns="http://www.w3.org/2000/svg">
 <g>
  <path d="M220.011 104.145c6.492-5.083 18.264-4.438 24.037-.468 12.445 7.449 22.214 7.639 32.639.645a4.976 4.976 0 0 1 .518-.3c.572-.291 14.143-7.048 24.926.7a28.09 28.09 0 0 1 11.426 22.555V142.3a10.508 10.508 0 0 0 6.158-9.558v-6.962c0-18.547-8.131-31.745-27.187-44.13a20.09 20.09 0 0 1-8.83-13.361c-1.629-9.386-7.092-20.573-23.853-20.573h-.01c-14.626 0-22.791 6.742-24.267 20.028a20.4 20.4 0 0 1-8.8 14.627c-18.3 12.467-26.1 25.449-26.1 43.409v6.962a10.514 10.514 0 0 0 5.468 9.223v-12.343a30.146 30.146 0 0 1 13.875-25.477zM313.557 164.985a53.58 53.58 0 0 1-4.445 21.408c1.889.818 4.016 1.365 5.474.792 2.157-.849 3.154-4.638 3.556-6.822.508-2.759 1.945-5.128 3.466-7.635l.4-.669c8.473-14.042 7.092-19.613 6.106-21.356-1.059-1.87-3.36-2.624-5-2.929a20.389 20.389 0 0 1-9.558 5zM197.828 148.286c-1.413.232-3.372.832-4.275 2.385-.749 1.289-2.5 6.641 6.394 21.388l.356.588c1.534 2.532 2.984 4.924 3.51 7.686.55 2.887 1.66 4.768 3.393 5.75a8.284 8.284 0 0 0 3.656.936 53.568 53.568 0 0 1-4.728-22.034V152.6a20.382 20.382 0 0 1-8.306-4.314zM248.5 416.353a4.83 4.83 0 0 0 4.171-2.5c.113-.3.458-1.2-1.051-2.709a8.1 8.1 0 0 0-2.273-1.524 55.078 55.078 0 0 0-18.624-5.312h-.028c-.12 0-.237-.019-.356-.028-7.876-.5-16.17 1.606-21.357 10.336a1.032 1.032 0 0 0 .039 1.028 1.011 1.011 0 0 0 .907.52v.186zM213.188 351.982v20.8a158.59 158.59 0 0 0 39.723-23.566c21.452-17.293 48.985-48.7 60.139-100.838a38.4 38.4 0 0 1-10.8-6.657c-10.743 37.75-34.223 56.672-52.688 65.986a109.365 109.365 0 0 1-36.376 10.933v23.262c7.867-.961 25.248-5.517 45.692-26.132a5 5 0 0 1 7.1 7.042c-23.293 23.494-43.435 28.304-52.79 29.17zM301.776 416.353a1.39 1.39 0 0 0 1.123-.724 1.076 1.076 0 0 0 .1-1.052 24.879 24.879 0 0 0-36.7-7.956l-4.1 3.041a11.54 11.54 0 0 1 .159 6.691z"/>
  <path d="M329.264 363.618a5 5 0 1 1-5.511-8.345c43.081-28.45 46.115-79.8 46.226-91.573a70.734 70.734 0 0 0-17.119-7.3c-1.169 13.569-6.425 45.62-30.033 68.225a5 5 0 1 1-6.916-7.223c22.1-21.162 26.3-52.626 27.1-63.527-5.9-1.3-12.576-2.465-20.156-3.523-11.793 55.281-41.153 88.6-64.037 106.949-19.9 15.954-38.1 23.507-45.627 26.2v5.96l9.161 5.208a40.274 40.274 0 0 1 7.654-.395c24.457-7.779 39.707-18.967 48.206-27.029 9.289-8.811 12.759-15.885 12.793-15.956a5 5 0 0 1 9.036 4.285c-.549 1.163-12.575 25.754-51.947 42.638 1.9.723 3.769 1.524 5.58 2.393a20.629 20.629 0 0 1 2.244 1.264l4.411-3.27a34.692 34.692 0 0 1 32.633-4.868l66.253-38.606a5 5 0 1 1 5.035 8.641l-38.54 22.457a78.025 78.025 0 0 0 33.373 5.449 5 5 0 0 1 .555 9.985q-2.554.143-5 .139a85.069 85.069 0 0 1-39.461-9.433l-12.094 7.047a34.917 34.917 0 0 1 8.682 10.344 10.788 10.788 0 0 1 1.245 6.6h29.436l45.287-17.542A31.188 31.188 0 0 0 406.8 362.4l-16.51-68.042c-2.561-9.189-5.642-16.5-10.644-22.423a141.393 141.393 0 0 1-4.708 26.819c-7.716 27.797-23.51 50.227-45.674 64.864zM259.845 208.8a43.812 43.812 0 0 0 43.712-43.813v-37.714a18.026 18.026 0 0 0-7.307-14.467c-5.26-3.779-12.958-.581-14.305.029-13.506 8.912-27.642 8.689-43.2-.678a4.986 4.986 0 0 1-.336-.221c-1.183-.848-3.75-1.39-6.319-1.39-2.338 0-4.677.449-5.977 1.522a4.723 4.723 0 0 1-.517.375 20.2 20.2 0 0 0-9.462 17.179v35.363a43.812 43.812 0 0 0 43.711 43.815zM203.188 383.776V246.317a27.885 27.885 0 0 1-9.473 3.426c-2.881.349-5.633.713-8.276 1.091v41.006a5 5 0 0 1-10 0v-39.4c-4.475.81-8.56 1.687-12.288 2.646l1.838 106.973 16.235 9.23V338a5 5 0 0 1 10 0v38.981zM249.008 464.63a258.263 258.263 0 0 1-59.86 31.37h225.467a32.913 32.913 0 0 0 32.875-32.876v-3.9a32.913 32.913 0 0 0-32.875-32.876h-71.264c-.388.005-40.591.452-94.343 38.282zM97.385 496h52.585c3.527-.448 46.285-6.47 93.283-39.547 21.118-14.863 40.168-24.212 55.853-30.1H97.385a32.913 32.913 0 0 0-32.875 32.876v3.9A32.913 32.913 0 0 0 97.385 496zm17.58-52.5h76.71a5 5 0 0 1 0 10h-76.71a5 5 0 0 1 0-10zm-22.059 0h2.7a5 5 0 0 1 0 10h-2.7a5 5 0 1 1 0-10zM213.188 239.43v69.128a100.436 100.436 0 0 0 32.239-9.962c25.125-12.809 41.481-34.724 48.653-65.152a74.413 74.413 0 0 1-1.063-1.294 72.4 72.4 0 0 1-10.9-18.215 53.477 53.477 0 0 1-48.03-1.744c-4.415 10.572-12.548 20.314-20.899 27.239z"/>
  <path d="m124.259 398.805 45.56 17.548h29.123a11 11 0 0 1 1.3-6.6l.072-.126a30.816 30.816 0 0 1 9.782-10.422l-62.3-35.414 4.942-8.693 2.148 1.221-1.686-98.174c-19.411 7.13-26.426 18.032-31.492 36.214L105.2 362.4a31.184 31.184 0 0 0 19.059 36.405zM208.735 229.981c6.881-6.225 13.678-14.732 16.866-23.572a54.262 54.262 0 0 1-9.187-9.816 26.6 26.6 0 0 1-4.846.463 18.726 18.726 0 0 1-9.3-2.274c-3.011-1.708-6.891-5.276-8.282-12.577a18.025 18.025 0 0 0-2.239-4.376l-.366-.6c-8.557-14.182-10.654-24.548-6.412-31.69a14.443 14.443 0 0 1 6.92-5.871 20.387 20.387 0 0 1-1.227-6.924v-6.962c0-27.4 16.285-42.006 30.473-51.673a10.414 10.414 0 0 0 4.49-7.467c.966-8.7 6.234-28.917 34.2-28.924h.012c18.238 0 30.522 10.518 33.706 28.862a10.059 10.059 0 0 0 4.426 6.687c21.95 14.266 31.738 30.462 31.738 52.515v6.962a20.427 20.427 0 0 1-.987 6.268 15.724 15.724 0 0 1 8.034 6.665c4.226 7.326 2.2 17.647-6.187 31.552l-.417.69a17.661 17.661 0 0 0-2.181 4.259c-1.386 7.529-4.676 12.352-9.779 14.336a13.733 13.733 0 0 1-5 .91 21.31 21.31 0 0 1-8.923-2.228 54.2 54.2 0 0 1-13.367 13.658c1.966 6.09 7.915 15.485 14.727 22.348a112.719 112.719 0 1 0-96.887-1.221z"/>
 </g>
</svg>
