<svg class="" enable-background="new 0 0 512 512" height="512" version="1.1" viewBox="0 0 512 512"
    width="512" xmlns="http://www.w3.org/2000/svg">
    <g>
        <path
            d="M258.44 11a117.773 117.773 0 0 0-117.7 117.81c0 47.7 28.08 88.19 68.82 107.19h.01l95.01 1.19A117.827 117.827 0 0 0 258.44 11z"
            fill="#6addc7" />
        <path
            d="m170.74 128.81a117.816 117.816 0 0 1 102.7-116.862 117.788 117.788 0 0 0-132.7 116.862c0 47.7 28.08 88.19 68.82 107.19h30c-40.74-19-68.82-59.49-68.82-107.19z"
            fill="#55a394" />
        <path class=""
            d="m411.66 361.22-16.53-68.12c-4-14.36-9.34-24.59-20.18-32.1-6.58-4.57-15.19-8.13-26.76-11.01a258.6 258.6 0 0 0-29.3-5.21c-20.94 109.51-110.7 135.11-110.7 135.11l-2.26 41.46h137.44l46.16-17.88a36.107 36.107 0 0 0 22.13-42.25z"
            fill="#fb6771" />
        <path class=""
            d="M321.21 142.57s24.72-.47 5.08 32.07c-1.54 2.57-2.86 4.59-3.23 6.63-3.66 19.85-20.47 7.14-20.47 7.14a48.631 48.631 0 0 0 5.97-23.43v-16.74h.69a15.434 15.434 0 0 0 11.96-5.67z"
            fill="#efc597" />
        <path
            d="M324.72 125.78v6.96a15.489 15.489 0 0 1-15.47 15.5h-.69v-20.97a22.944 22.944 0 0 0-9.35-18.49 15.441 15.441 0 0 0-9.17-2.78 26.034 26.034 0 0 0-10.57 2.47c-11.6 7.79-23.56 8.18-38.15-.6-2.05-1.47-5.58-2.34-9.16-2.34-3.46 0-6.97.81-9.23 2.68a25.363 25.363 0 0 0-11.8 21.41v18.62a15.488 15.488 0 0 1-15.46-15.5v-6.96c0-22.25 11.21-35.91 28.28-47.54a15.4 15.4 0 0 0 6.65-11.05c1.03-9.33 6.24-24.47 29.23-24.48 21.34 0 27.2 15.55 28.79 24.72a15.056 15.056 0 0 0 6.63 10.03c17.73 11.52 29.47 25.57 29.47 48.32z"
            fill="#6d7486" />
        <path class=""
            d="m208.19 347.1v-33.08s73.89-1.41 91.33-81.93a63.568 63.568 0 0 0 5.06 5.06c4.62 4.08 9.59 7.02 14.31 7.63-20.94 109.51-110.7 135.11-110.7 135.11z"
            fill="#fc8692" />
        <path class=""
            d="m285.28 206.62-53.88-2.01c-3.1 11.92-12.51 23.62-21.83 31.31h-.01c-.46.38-.91.74-1.37 1.1v77s73.89-1.41 91.33-81.93c-7.69-8.57-13.57-19.37-14.24-25.47zM208.18 392.37l-21.96-12.48-26.2-14.9.02-.03-1.95-113.59c-26.2 7.69-35.22 20.14-41.22 41.73l-16.53 68.12a36.107 36.107 0 0 0 22.13 42.25l46.42 17.88h41.04v-.18l11.46-21.29zM218.55 190.88s-16.66 6.1-19.65-9.61c-.39-2.04-1.69-4.06-3.23-6.63-19.64-32.54 4-31.5 4-31.5a15.4 15.4 0 0 0 11.46 5.1v16.74a48.642 48.642 0 0 0 7.42 25.9z"
            fill="#efc597" />
        <path
            d="M193.11 244.78c-4.5.55-8.71 1.13-12.67 1.76a180.932 180.932 0 0 0-22.35 4.83l1.95 113.59-.02.03 26.2 14.9 21.96 12.48.01-.01V237.02c-5.64 4.41-11.15 7.28-15.08 7.76z"
            fill="#e75163" />
        <path class=""
            d="M307.38 412.17a5.728 5.728 0 0 1 .72 2.8 6.449 6.449 0 0 1-6.32 6.38h-53.07c6.9-.38 12.14-7.19 7.02-13.12l7.57-5.61a29.875 29.875 0 0 1 44.08 9.55z"
            fill="#efc597" />
        <path
            d="M255.73 408.23c5.12 5.93-.12 12.74-7.02 13.12h-38.78v-.18a6.061 6.061 0 0 1-5.31-9 24.767 24.767 0 0 1 16.77-12.29 34.292 34.292 0 0 1 9.3-.57c9.08.61 17.4 4.16 20.82 5.8a13.3 13.3 0 0 1 3.65 2.5c.2.2.39.41.57.62zM299.21 108.78a15.441 15.441 0 0 0-9.17-2.78 26.034 26.034 0 0 0-10.57 2.47c-11.6 7.79-23.56 8.18-38.15-.6-2.05-1.47-5.58-2.34-9.16-2.34-3.46 0-6.97.81-9.23 2.68a25.363 25.363 0 0 0-11.8 21.41v35.36a48.715 48.715 0 1 0 97.43 0v-37.71a22.944 22.944 0 0 0-9.35-18.49z"
            fill="#ffd8b7" />
        <path
            d="M452.49 459.23v3.89A37.881 37.881 0 0 1 414.61 501H150.27s45.26-4.85 95.86-40.46c55.43-39.01 96.49-39.19 97.23-39.19h71.25a37.881 37.881 0 0 1 37.88 37.88z"
            fill="#c24e38" />
        <path class=""
            d="M97.39 421C76.47 421 60 438.31 60 459.23v3.89C60 484.04 76.47 501 97.39 501h52.88s45.26-5.025 95.86-40.635C301.56 421.355 342.62 421 343.36 421z"
            fill="#ed6337" />
        <path class=""
            d="m130.34 361.22 16.53-68.12c2.749-9.893 6.139-17.862 11.519-24.338l-.3-17.392c-26.2 7.69-35.22 20.14-41.22 41.73l-16.53 68.12a35.9 35.9 0 0 0 22.131 42.08l46.42 17.7h30l-46.42-17.7a35.9 35.9 0 0 1-22.13-42.08z"
            fill="#cea882" />
        <path class=""
            d="M90 463.12v-3.89c0-20.92 16.47-38.23 37.39-38.23h-30C76.47 421 60 438.31 60 459.23v3.89C60 484.04 76.47 501 97.39 501h30C106.47 501 90 484.04 90 463.12z"
            fill="#cc593a" />
        <path class=""
            d="m92.906 454.5h2.7a6 6 0 0 0 0-12h-2.7a6 6 0 1 0 0 12zm22.059 0h76.71a6 6 0 0 0 0-12h-76.71a6 6 0 0 0 0 12z"
            fill="#284268" />
        <path class=""
            d="M97.385 507h177.772a6 6 0 0 0 0-12h-80.513a260.306 260.306 0 0 0 54.94-29.552c53.443-37.614 93.382-38.094 93.763-38.095h71.268a31.875 31.875 0 0 1 31.875 31.876v3.9A31.875 31.875 0 0 1 414.615 495h-99.458a6 6 0 1 0 0 12h99.458a43.876 43.876 0 0 0 43.875-43.876v-3.9a43.876 43.876 0 0 0-43.875-43.876h-39.141l16.206-6.277a42.211 42.211 0 0 0 25.813-49.27l-16.534-68.123a4.16 4.16 0 0 0-.05-.192c-9.442-33.974-27.669-45.786-81.259-52.663a12.721 12.721 0 0 1-3.037-.813 123.631 123.631 0 0 0 65.532-109.244C382.145 60.523 326.653 5 258.443 5s-123.7 55.523-123.7 123.771a123.933 123.933 0 0 0 63.2 107.966 16.714 16.714 0 0 1-5.553 2.086c-28.607 3.464-45.99 8.444-58.127 16.65-11.514 7.785-18.229 18.22-23.175 36.018a4.16 4.16 0 0 0-.05.192l-16.531 68.123a42.209 42.209 0 0 0 25.8 49.267l16.306 6.28H97.385a43.876 43.876 0 0 0-43.875 43.876v3.9A43.876 43.876 0 0 0 97.385 507zm204.391-91.647H263.6a12.478 12.478 0 0 0-.248-5.3l3.545-2.628a23.921 23.921 0 0 1 35.206 7.54c-.012.128-.211.388-.327.388zm21.862-163.874c6.835.978 12.9 2.051 18.3 3.235-.938 11.517-5.438 41.586-26.719 61.969a6 6 0 0 0 8.3 8.668c23.107-22.125 28.81-53.189 30.216-67.559a71.382 71.382 0 0 1 15.237 6.514c-.212 12.687-3.8 62.418-45.769 90.133a6 6 0 1 0 6.613 10.013c22.368-14.772 38.305-37.4 46.086-65.431a142.563 142.563 0 0 0 4.535-24.617c4.2 5.615 6.675 12.271 8.885 20.2l16.51 68.027a30.187 30.187 0 0 1-18.466 35.243l-45.113 17.474h-28.159a11.793 11.793 0 0 0-1.46-6.082 35.953 35.953 0 0 0-7.829-9.711l10.39-6.055a86.464 86.464 0 0 0 39.446 9.291c1.646 0 3.332-.045 5.049-.141a6 6 0 1 0-.666-11.981 77.294 77.294 0 0 1-31.012-4.637l36.739-21.408a6 6 0 1 0-6.042-10.368l-65.85 38.371a35.718 35.718 0 0 0-33.128 5.163l-3.862 2.863a22.42 22.42 0 0 0-1.765-.954q-1.676-.8-3.406-1.53c37.978-17 49.7-41.017 50.244-42.174a6 6 0 0 0-10.84-5.146c-.034.069-3.475 7.05-12.669 15.748-8.395 7.943-23.443 18.959-47.548 26.659a41.4 41.4 0 0 0-7.372.351l-8.325-4.733V384.2a165.237 165.237 0 0 0 45.252-26.117c22.887-18.346 52.219-51.583 64.198-106.604zM251.734 413.5a3.9 3.9 0 0 1-3.281 1.857h-38.544v-.178l-.03-.112c5.01-8.37 13.089-10.309 20.75-9.757h.069a53.957 53.957 0 0 1 18.213 5.212 7.254 7.254 0 0 1 2 1.328c.477.482 1.01 1.157.823 1.65zm14.921-98.462a6 6 0 0 0-8.485.035c-19.328 19.49-35.843 24.459-43.982 25.69v-21.231a110.766 110.766 0 0 0 35.827-10.932c18.4-9.283 41.734-28.016 52.761-65.119a39.327 39.327 0 0 0 9.118 5.519c-8.97 41.3-28.978 74.724-59.54 99.389a158.6 158.6 0 0 1-38.166 22.911v-18.424c9.9-1.119 29.764-6.428 52.5-29.357a6 6 0 0 0-.033-8.485zM209.24 185.793a5.848 5.848 0 0 1-1.541-.579c-.538-.305-2.173-1.233-2.9-5.068-.56-2.939-2.054-5.406-3.637-8.017l-.355-.587c-6.838-11.334-7.784-17.951-6.388-20.363a4.621 4.621 0 0 1 3.119-1.819 21.417 21.417 0 0 0 7.6 4.01v11.615a54.593 54.593 0 0 0 4.102 20.808zm-4.106-56.171v10.461a9.5 9.5 0 0 1-3.468-7.343v-6.962c0-17.824 7.436-30.161 25.667-42.583a21.4 21.4 0 0 0 9.229-15.343c1.411-12.7 9.241-19.135 23.274-19.138h.009c12.9 0 20.594 6.643 22.868 19.744a21.094 21.094 0 0 0 9.27 14.028c18.737 12.178 26.732 25.125 26.732 43.292v6.962a9.506 9.506 0 0 1-4.158 7.861v-13.328a29.1 29.1 0 0 0-11.842-23.367c-11.273-8.1-25.369-1.082-25.964-.779a6.034 6.034 0 0 0-.621.364c-10.049 6.741-19.493 6.548-31.544-.657-6.055-4.135-18.337-4.8-25.154.494a31.142 31.142 0 0 0-14.298 26.294zm118.275 19.235a5.776 5.776 0 0 1 3.825 2.313c.713 1.235 2.381 6.355-6.077 20.372l-.4.667c-1.57 2.588-3.053 5.034-3.595 7.973-.61 3.317-1.708 5.588-2.937 6.072a6 6 0 0 1-3.789-.412 54.6 54.6 0 0 0 4.125-20.857v-11.437a21.4 21.4 0 0 0 8.848-4.691zm-106.275-19.235a19.209 19.209 0 0 1 9-16.333 5.957 5.957 0 0 0 .622-.45c1.108-.916 3.211-1.3 5.327-1.3 2.356 0 4.725.473 5.748 1.206.13.094.265.183.4.266 15.895 9.57 30.357 9.8 44.195.7 1.437-.641 8.508-3.5 13.233-.106a17.022 17.022 0 0 1 6.9 13.662v37.712a42.712 42.712 0 1 1-85.423 0zm17.432 83.951a54.465 54.465 0 0 0 47.032 1.695 75.619 75.619 0 0 0 11.358 18.454c-7.158 29.823-23.247 51.344-47.909 63.945a99.609 99.609 0 0 1-30.859 9.748v-67.574c8.078-6.788 15.885-16.119 20.378-26.268zm-87.824-84.8a111.7 111.7 0 1 1 159.03 101.268c-6.236-6.43-11.665-14.98-13.7-20.794a55.226 55.226 0 0 0 12.543-12.806 21.794 21.794 0 0 0 8.6 1.978 14.67 14.67 0 0 0 5.349-.975c3.745-1.456 8.589-5.256 10.4-15.087a18.331 18.331 0 0 1 2.053-3.922l.419-.692c8.595-14.244 10.621-24.9 6.2-32.568a16.2 16.2 0 0 0-7.7-6.759 21.43 21.43 0 0 0 .783-5.674v-6.962c0-22.429-9.929-38.883-32.193-53.353a9.063 9.063 0 0 1-3.986-6.02c-3.276-18.87-15.918-29.691-34.691-29.691h-.012c-28.778.007-34.2 20.851-35.2 29.814a9.413 9.413 0 0 1-4.059 6.75c-14.391 9.806-30.91 24.635-30.91 52.5v6.962a21.459 21.459 0 0 0 .963 6.371 15.062 15.062 0 0 0-6.516 5.913c-4.447 7.489-2.349 18.191 6.416 32.718l.366.605a18.894 18.894 0 0 1 2.112 4.045c1.463 7.677 5.577 11.448 8.771 13.26a19.714 19.714 0 0 0 9.786 2.4 27.417 27.417 0 0 0 4.4-.367 55.231 55.231 0 0 0 8.464 9.029c-3.138 8.265-9.412 16.187-15.816 22.1a111.862 111.862 0 0 1-61.872-100.045zm27.7 124.873v38.2a6 6 0 0 0 12 0V251.7q3.558-.5 7.4-.965a26.568 26.568 0 0 0 8.353-2.8v134.12l-9.964-5.664V338a6 6 0 0 0-12 0v31.577l-14.245-8.1-1.814-105.6c3.157-.802 6.571-1.542 10.267-2.233zm-49.825 144.226a30.182 30.182 0 0 1-18.448-35.236l16.509-68.026c4.843-17.373 11.524-27.982 29.549-35.008l1.632 94.981-.313-.165a6.081 6.081 0 0 0-5.822 10.677l35.518 20c.059.034.117.069.178.1l24.785 14.09a32.317 32.317 0 0 0-8.753 9.839c-.03.05-.058.1-.087.152a12.049 12.049 0 0 0-1.506 6.08h-27.854zM65.51 459.229a31.875 31.875 0 0 1 31.875-31.876h196.434a255.525 255.525 0 0 0-51.142 28.282C196.1 488.42 153.709 494.511 149.905 495h-52.52a31.875 31.875 0 0 1-31.875-31.876z"
            fill="#284268" />
    </g>
</svg>
